<svg id="Layer_1" data-name="Layer 1" xmlns="http://www.w3.org/2000/svg" viewBox="0 0 70.52 90.74"><defs><style>.cls-1{fill:#fff;}.cls-2{fill:#3e3a39;}</style></defs><title>chatbot</title><g id="White_shirt" data-name="White shirt"><path class="cls-1" d="M43.23,8.29c1.47,1.51,1.69,4,1.69,6.82a28.71,28.71,0,0,1-1.11,7.4A32.59,32.59,0,0,1,39,32.6a5.64,5.64,0,0,1-.92,1.15c0-2-.08-4-.08-6,0-1,0-2,0-3a124.42,124.42,0,0,0-2.15-13A7,7,0,0,1,37,10.56a11.85,11.85,0,0,1,2.65,3.95,11.14,11.14,0,0,0-1.38-3.91c-.74-1.49-1.31-3.25-2.88-3.83A13.08,13.08,0,0,0,38.9,5.34C39.62,5,40.5,4.46,41.24,4c.21-.13.68-.39.69-.58s-.29-.41-.54-.52l1.42.64c.15.58.3,1.25.46,2C43.5,6.48,43.93,7.69,43.23,8.29Zm-7.55-3.6h-.83c-.89,0-2,.26-1.88,1.1a8.1,8.1,0,0,0,2.3.78,8.08,8.08,0,0,0,2.3-.78C37.65,4.95,36.57,4.74,35.68,4.69Zm-8.39,3.6c-1.47,1.51-1.69,4-1.69,6.82a28.71,28.71,0,0,0,1.11,7.4A32.58,32.58,0,0,0,31.55,32.6a5.64,5.64,0,0,0,.92,1.15c0-2,.08-4,.08-6,0-1,0-2,0-3a124.21,124.21,0,0,1,2.15-13,7,7,0,0,0-1.19-1.19A11.85,11.85,0,0,0,30.9,14.5a11.14,11.14,0,0,1,1.38-3.91C33,9.1,33.59,7.34,35.15,6.76a13.09,13.09,0,0,1-3.53-1.42C30.9,5,30,4.46,29.28,4c-.21-.13-.68-.39-.69-.58s.29-.41.54-.52l-1.42.64c-.15.58-.3,1.25-.46,2C27,6.48,26.6,7.69,27.29,8.29ZM41.12,2.77a4.43,4.43,0,0,0-.72-.58A11.47,11.47,0,0,0,35.3.74h-.08a11.46,11.46,0,0,0-5.1,1.46,4.45,4.45,0,0,0-.72.58c0,.07-.51.39-.5.69a5.44,5.44,0,0,0,1,.65,7.77,7.77,0,0,1,10.73,0,5.46,5.46,0,0,0,1-.65C41.63,3.16,41.16,2.84,41.12,2.77Z"/></g><path id="Suit" class="cls-2" d="M70.3,48.67c-.45-5.17-1.19-10.16-1.92-15.07-.29-2-.4-4-1.42-5.41.22-.34.45-.67.69-1-.38-.49-.89-.85-1.3-1.3.21-.39.62-.59.65-1.07a3,3,0,0,0-.19-.77c-.47-1.8-.92-3.67-1.34-5.37A46.09,46.09,0,0,1,64.4,14,5.07,5.07,0,0,0,64,12.43c-.49-.94-1.59-1-2.84-1.19A46.17,46.17,0,0,1,50.29,8.52a8.48,8.48,0,0,1-1.57-.73,5.61,5.61,0,0,1-.61-.65,15.69,15.69,0,0,0-5.29-3.6c.15.58.3,1.25.46,2,.23,1,.66,2.2,0,2.8,1.47,1.51,1.69,4,1.69,6.82a28.71,28.71,0,0,1-1.11,7.4A32.6,32.6,0,0,1,39,32.6a5.64,5.64,0,0,1-.92,1.15c0-2-.08-4-.08-6,0-1,0-2,0-3a124.31,124.31,0,0,0-2.15-13A7,7,0,0,1,37,10.56a11.85,11.85,0,0,1,2.65,3.95,11.14,11.14,0,0,0-1.38-3.91c-.74-1.49-1.31-3.25-2.88-3.83A13.1,13.1,0,0,0,38.9,5.34C39.62,5,40.5,4.46,41.24,4c.21-.13.68-.39.69-.58,0-.37-.65-.54-.81-.65,0,.07.51.39.5.69a5.49,5.49,0,0,1-1,.65,7.77,7.77,0,0,0-10.73,0,5.44,5.44,0,0,1-1-.65c0-.3.46-.62.5-.69-.15.11-.82.28-.8.65,0,.19.48.44.69.58.74.46,1.61,1,2.34,1.34a13.09,13.09,0,0,0,3.53,1.42c-1.56.58-2.14,2.34-2.88,3.83A11.14,11.14,0,0,0,30.9,14.5a11.85,11.85,0,0,1,2.65-3.95,7,7,0,0,1,1.19,1.19,124.21,124.21,0,0,0-2.15,13c-.09,1,0,2,0,3,0,1.94-.05,4-.08,6a5.64,5.64,0,0,1-.92-1.15,32.58,32.58,0,0,1-4.83-10.08,28.71,28.71,0,0,1-1.11-7.4c0-2.79.22-5.31,1.69-6.82-.69-.6-.26-1.81,0-2.8.16-.7.31-1.38.46-2a15.69,15.69,0,0,0-5.29,3.6,5.61,5.61,0,0,1-.61.65,8.49,8.49,0,0,1-1.57.73A46.17,46.17,0,0,1,9.35,11.25c-1.25.2-2.35.25-2.84,1.19A5.09,5.09,0,0,0,6.13,14a46,46,0,0,1-1.07,4.68c-.42,1.7-.87,3.57-1.34,5.37a3,3,0,0,0-.19.77c0,.48.44.69.65,1.07-.42.45-.93.81-1.3,1.3.24.32.47.66.69,1-1,1.45-1.13,3.44-1.42,5.41C1.42,38.51.68,43.49.22,48.67A17.19,17.19,0,0,0,0,51.85,5.85,5.85,0,0,0,1,54a31.94,31.94,0,0,0,6.67,7.67A21.2,21.2,0,0,0,11.07,64c-.58,7.66-1.6,14.88-2.61,22.12a79.51,79.51,0,0,0,53.59,0c-1-7.24-2-14.46-2.61-22.12a21.2,21.2,0,0,0,3.41-2.3A31.94,31.94,0,0,0,69.53,54a5.84,5.84,0,0,0,1-2.15A17.19,17.19,0,0,0,70.3,48.67ZM33,5.79c-.1-.84,1-1.05,1.88-1.1h.83c.89,0,2,.26,1.88,1.1a8.09,8.09,0,0,1-2.3.78A8.1,8.1,0,0,1,33,5.79Zm2.33-5A11.47,11.47,0,0,1,40.4,2.2,16.71,16.71,0,0,0,38.21.89a6.34,6.34,0,0,0-3-.89,6.34,6.34,0,0,0-3,.89,16.7,16.7,0,0,0-2.19,1.3A11.46,11.46,0,0,1,35.22.74Z"/></svg>