<svg id="Layer_1" data-name="Layer 1" xmlns="http://www.w3.org/2000/svg" viewBox="0 0 24 24"><defs><style>.cls-1{fill:#bf0000;}</style></defs><title>chatbot</title><path class="cls-1" d="M12.38,16.06h-.75a27.84,27.84,0,0,0-.78-4.68L10,7.67a23.56,23.56,0,0,1-.8-4.77A2.88,2.88,0,0,1,10,.8,2.72,2.72,0,0,1,12,0a2.76,2.76,0,0,1,2.83,2.85A25.26,25.26,0,0,1,14,7.67l-.9,3.7A30.91,30.91,0,0,0,12.38,16.06ZM12,18.48A2.76,2.76,0,0,1,14,23.19a2.75,2.75,0,0,1-3.89,0,2.65,2.65,0,0,1-.81-1.94,2.69,2.69,0,0,1,.8-2A2.63,2.63,0,0,1,12,18.48Z"/></svg>