<svg id="Layer_1" data-name="Layer 1" xmlns="http://www.w3.org/2000/svg" viewBox="0 0 24 24"><defs><style>.cls-1{fill:#fff;}.cls-2{fill:#3e3a39;}.cls-3{fill:#fdd084;}</style></defs><title>chatbot</title><g id="White_shirt" data-name="White shirt"><path class="cls-1" d="M19,30.33c1.47,1.51,1.69,4,1.69,6.82a28.71,28.71,0,0,1-1.11,7.4,32.59,32.59,0,0,1-4.83,10.08,5.64,5.64,0,0,1-.92,1.15c0-2-.08-4-.08-6,0-1,0-2,0-3a124.42,124.42,0,0,0-2.15-13,7,7,0,0,1,1.19-1.19,11.85,11.85,0,0,1,2.65,3.95A11.14,11.14,0,0,0,14,32.63c-.74-1.49-1.31-3.25-2.88-3.83a13.08,13.08,0,0,0,3.53-1.42C15.4,27,16.27,26.5,17,26c.21-.13.68-.39.69-.58s-.29-.41-.54-.52l1.42.64c.15.58.3,1.25.46,2C19.27,28.52,19.7,29.73,19,30.33Zm-7.55-3.6h-.83c-.89,0-2,.26-1.88,1.1a8.1,8.1,0,0,0,2.3.78,8.08,8.08,0,0,0,2.3-.78C13.43,27,12.34,26.77,11.46,26.72Zm-8.39,3.6c-1.47,1.51-1.69,4-1.69,6.82a28.71,28.71,0,0,0,1.11,7.4A32.58,32.58,0,0,0,7.33,54.63a5.64,5.64,0,0,0,.92,1.15c0-2,.08-4,.08-6,0-1,0-2,0-3a124.21,124.21,0,0,1,2.15-13,7,7,0,0,0-1.19-1.19,11.85,11.85,0,0,0-2.65,3.95,11.14,11.14,0,0,1,1.38-3.91c.74-1.49,1.31-3.25,2.88-3.83A13.09,13.09,0,0,1,7.4,27.37C6.68,27,5.81,26.5,5.06,26c-.21-.13-.68-.39-.69-.58s.29-.41.54-.52l-1.42.64c-.15.58-.3,1.25-.46,2C2.81,28.52,2.38,29.73,3.07,30.33ZM16.9,24.8a4.43,4.43,0,0,0-.72-.58,11.47,11.47,0,0,0-5.1-1.46H11a11.46,11.46,0,0,0-5.1,1.46,4.45,4.45,0,0,0-.72.58c0,.07-.51.39-.5.69a5.44,5.44,0,0,0,1,.65A7.37,7.37,0,0,1,11,24a7.38,7.38,0,0,1,5.36,2.15,5.46,5.46,0,0,0,1-.65C17.41,25.2,16.94,24.88,16.9,24.8Z"/></g><path id="Suit" class="cls-2" d="M46.08,70.7c-.45-5.17-1.19-10.16-1.92-15.07-.29-2-.4-4-1.42-5.41.22-.34.45-.67.69-1-.38-.49-.89-.85-1.3-1.3.21-.39.62-.59.65-1.07a3,3,0,0,0-.19-.77c-.47-1.8-.92-3.67-1.34-5.37A46.09,46.09,0,0,1,40.18,36a5.07,5.07,0,0,0-.38-1.57c-.49-.94-1.59-1-2.84-1.19a46.17,46.17,0,0,1-10.89-2.72,8.48,8.48,0,0,1-1.57-.73,5.61,5.61,0,0,1-.61-.65,15.69,15.69,0,0,0-5.29-3.6c.15.58.3,1.25.46,2,.23,1,.66,2.2,0,2.8,1.47,1.51,1.69,4,1.69,6.82a28.71,28.71,0,0,1-1.11,7.4,32.6,32.6,0,0,1-4.83,10.08,5.64,5.64,0,0,1-.92,1.15c0-2-.08-4-.08-6,0-1,0-2,0-3a124.31,124.31,0,0,0-2.15-13,7,7,0,0,1,1.19-1.19,11.85,11.85,0,0,1,2.65,3.95A11.14,11.14,0,0,0,14,32.63c-.74-1.49-1.31-3.25-2.88-3.83a13.1,13.1,0,0,0,3.53-1.42C15.4,27,16.27,26.5,17,26c.21-.13.68-.39.69-.58,0-.37-.65-.54-.81-.65,0,.07.51.39.5.69a5.49,5.49,0,0,1-1,.65A7.38,7.38,0,0,0,11,24a7.37,7.37,0,0,0-5.36,2.15,5.44,5.44,0,0,1-1-.65c0-.3.46-.62.5-.69-.15.11-.82.28-.8.65,0,.19.48.44.69.58.74.46,1.61,1,2.34,1.34a13.09,13.09,0,0,0,3.53,1.42c-1.56.58-2.14,2.34-2.88,3.83a11.14,11.14,0,0,0-1.38,3.91,11.85,11.85,0,0,1,2.65-3.95,7,7,0,0,1,1.19,1.19,124.21,124.21,0,0,0-2.15,13c-.09,1,0,2,0,3,0,1.94-.05,4-.08,6a5.64,5.64,0,0,1-.92-1.15A32.58,32.58,0,0,1,2.5,44.55a28.71,28.71,0,0,1-1.11-7.4c0-2.79.22-5.31,1.69-6.82-.69-.6-.26-1.81,0-2.8.16-.7.31-1.38.46-2a15.69,15.69,0,0,0-5.29,3.6,5.61,5.61,0,0,1-.61.65A8.49,8.49,0,0,1-4,30.56a46.17,46.17,0,0,1-10.89,2.72c-1.25.2-2.35.25-2.84,1.19A5.09,5.09,0,0,0-18.09,36a46,46,0,0,1-1.07,4.68c-.42,1.7-.87,3.57-1.34,5.37a3,3,0,0,0-.19.77c0,.48.44.69.65,1.07-.42.45-.93.81-1.3,1.3.24.32.47.66.69,1-1,1.45-1.13,3.44-1.42,5.41-.72,4.91-1.46,9.89-1.92,15.07a17.19,17.19,0,0,0-.19,3.18,5.85,5.85,0,0,0,1,2.15,32,32,0,0,0,3.72,4.87,31.85,31.85,0,0,0,3,2.8A21.2,21.2,0,0,0-13.15,86c-.58,7.66-1.6,14.88-2.61,22.12A79.07,79.07,0,0,0,11,112.77a79.07,79.07,0,0,0,26.8-4.65c-1-7.24-2-14.46-2.61-22.12a21.2,21.2,0,0,0,3.41-2.3A31.94,31.94,0,0,0,45.31,76a5.84,5.84,0,0,0,1-2.15A17.19,17.19,0,0,0,46.08,70.7ZM8.74,27.82c-.1-.84,1-1.05,1.88-1.1h.83c.89,0,2,.26,1.88,1.1a8.09,8.09,0,0,1-2.3.78A8.1,8.1,0,0,1,8.74,27.82Zm2.33-5a11.47,11.47,0,0,1,5.1,1.46A16.71,16.71,0,0,0,14,22.93,6.34,6.34,0,0,0,11,22a6.34,6.34,0,0,0-3,.89,16.7,16.7,0,0,0-2.19,1.3A11.46,11.46,0,0,1,11,22.77Z"/><path class="cls-3" d="M11.47,16h-.7A12.67,12.67,0,0,1,11,13.22a11.07,11.07,0,0,1,1.1-2.57A13.78,13.78,0,0,0,13.23,8a9.22,9.22,0,0,0,.28-2.45,5.18,5.18,0,0,0-.88-3.33,2.64,2.64,0,0,0-2.09-1.07A2.43,2.43,0,0,0,9,1.66a1,1,0,0,0-.48.78,2.06,2.06,0,0,0,.32.85,4.79,4.79,0,0,1,.73,2.22A1.87,1.87,0,0,1,9,6.91a1.94,1.94,0,0,1-1.42.56A2.13,2.13,0,0,1,6,6.8,2.45,2.45,0,0,1,5.35,5,4.55,4.55,0,0,1,7.08,1.51,7.12,7.12,0,0,1,11.92,0a7.21,7.21,0,0,1,5,1.57,5,5,0,0,1,1.72,3.79,5.38,5.38,0,0,1-.88,3,11.76,11.76,0,0,1-3.41,3,7.46,7.46,0,0,0-2.23,2A6,6,0,0,0,11.47,16Zm-.19,2.48A2.72,2.72,0,0,1,14,21.25a2.66,2.66,0,0,1-.8,1.94,2.73,2.73,0,0,1-3.87,0,2.66,2.66,0,0,1-.8-1.94,2.72,2.72,0,0,1,2.73-2.73Z"/></svg>