<svg id="Layer_1" data-name="Layer 1" xmlns="http://www.w3.org/2000/svg" viewBox="0 0 36.22 20"><defs><style>.cls-1{fill:#3e3a39;}</style></defs><title>chatbot</title><path class="cls-1" d="M30.16,11.6c-.6-.12-1.23.17-1.89-.08a4.88,4.88,0,0,0,.11-1V4.85A4.85,4.85,0,0,0,23.53,0,11.87,11.87,0,0,1,18,1.7,10,10,0,0,1,12.69,0,4.85,4.85,0,0,0,7.84,4.85v5.66a4.89,4.89,0,0,0,.1,1c-.75.28-1.46,0-2.12.17C2.24,12.39,0,9.36,0,11.59S8.11,20,18.11,20s18.11-5.59,18.11-8.41-2.34.75-6.06,0ZM17.7,15.21c-5.16,0-9.35-1.32-9.35-2.95a1.41,1.41,0,0,1,.6-1c1.34,1.11,4.75,1.91,8.74,1.91s7.53-.79,8.86-1.91a1.25,1.25,0,0,1,.48,1c0,1.63-4.19,2.95-9.35,2.95Zm0,0"/></svg>