<svg id="圖層_1" data-name="圖層 1" xmlns="http://www.w3.org/2000/svg" xmlns:xlink="http://www.w3.org/1999/xlink" viewBox="0 0 175.05 60"><defs><style>.cls-1{fill:url(#黃銅色色環);}.cls-2{fill:url(#黃銅色色環-2);}.cls-3{fill:url(#黃銅色色環-3);}.cls-4{fill:url(#黃銅色色環-4);}.cls-5{fill:url(#黃銅色色環-5);}.cls-6{fill:url(#黃銅色色環-6);}.cls-7{fill:url(#黃銅色色環-7);}.cls-8{fill:url(#黃銅色色環-8);}.cls-9{fill:url(#黃銅色色環-9);}.cls-10{fill:url(#黃銅色色環-10);}.cls-11{fill:url(#黃銅色色環-11);}.cls-12{fill:url(#黃銅色色環-12);}.cls-13{fill:url(#黃銅色色環-13);}.cls-14{fill:url(#黃銅色色環-14);}.cls-15{fill:url(#黃銅色色環-15);}.cls-16{fill:url(#黃銅色色環-16);}.cls-17{fill:url(#黃銅色色環-17);}.cls-18{fill:url(#黃銅色色環-18);}.cls-19{fill:url(#黃銅色色環-19);}.cls-20{fill:url(#黃銅色色環-20);}.cls-21{fill:url(#黃銅色色環-21);}.cls-22{fill:url(#黃銅色色環-22);}.cls-23{fill:url(#黃銅色色環-23);}.cls-24{fill:url(#黃銅色色環-24);}.cls-25{fill:url(#黃銅色色環-25);}.cls-26{fill:url(#黃銅色色環-26);}.cls-27{fill:url(#黃銅色色環-27);}.cls-28{fill:url(#黃銅色色環-28);}.cls-29{fill:url(#黃銅色色環-29);}</style><radialGradient id="黃銅色色環" cx="21.95" cy="27.43" r="13.08" gradientUnits="userSpaceOnUse"><stop offset="0.18" stop-color="#f9f3e5"/><stop offset="0.59" stop-color="#f4db8c"/><stop offset="1" stop-color="#c78a03"/></radialGradient><radialGradient id="黃銅色色環-2" cx="36.05" cy="27.43" r="14.09" xlink:href="#黃銅色色環"/><radialGradient id="黃銅色色環-3" cx="57.94" cy="26.98" r="14.32" xlink:href="#黃銅色色環"/><radialGradient id="黃銅色色環-4" cx="78.21" cy="27.43" r="12.49" xlink:href="#黃銅色色環"/><radialGradient id="黃銅色色環-5" cx="92.04" cy="27.43" r="13.78" xlink:href="#黃銅色色環"/><radialGradient id="黃銅色色環-6" cx="113.24" cy="26.72" r="14.52" xlink:href="#黃銅色色環"/><radialGradient id="黃銅色色環-7" cx="87.53" cy="30" r="65.42" xlink:href="#黃銅色色環"/><radialGradient id="黃銅色色環-8" cx="134.53" cy="38.82" r="9.97" xlink:href="#黃銅色色環"/><radialGradient id="黃銅色色環-9" cx="153.08" cy="38.86" r="9.97" xlink:href="#黃銅色色環"/><radialGradient id="黃銅色色環-10" cx="143.77" cy="40.81" r="7.28" xlink:href="#黃銅色色環"/><radialGradient id="黃銅色色環-11" cx="143.88" cy="20.89" r="9.11" xlink:href="#黃銅色色環"/><radialGradient id="黃銅色色環-12" cx="143.73" cy="12.98" r="4.32" xlink:href="#黃銅色色環"/><radialGradient id="黃銅色色環-13" cx="143.79" cy="17.26" r="4.69" xlink:href="#黃銅色色環"/><radialGradient id="黃銅色色環-14" cx="63.91" cy="46.39" r="1.96" xlink:href="#黃銅色色環"/><radialGradient id="黃銅色色環-15" cx="68.06" cy="46.83" r="1.69" xlink:href="#黃銅色色環"/><radialGradient id="黃銅色色環-16" cx="72.06" cy="46.82" r="1.65" xlink:href="#黃銅色色環"/><radialGradient id="黃銅色色環-17" cx="77.79" cy="46.83" r="1.68" xlink:href="#黃銅色色環"/><radialGradient id="黃銅色色環-18" cx="81.62" cy="46.82" r="1.65" xlink:href="#黃銅色色環"/><radialGradient id="黃銅色色環-19" cx="85.27" cy="46.82" r="1.74" xlink:href="#黃銅色色環"/><radialGradient id="黃銅色色環-20" cx="89.12" cy="46.83" r="1.66" xlink:href="#黃銅色色環"/><radialGradient id="黃銅色色環-21" cx="92.83" cy="46.82" r="1.65" xlink:href="#黃銅色色環"/><radialGradient id="黃銅色色環-22" cx="96.35" cy="46.74" r="1.63" xlink:href="#黃銅色色環"/><radialGradient id="黃銅色色環-23" cx="102.31" cy="46.48" r="2" xlink:href="#黃銅色色環"/><radialGradient id="黃銅色色環-24" cx="106.39" cy="46.82" r="1.65" xlink:href="#黃銅色色環"/><radialGradient id="黃銅色色環-25" cx="110.21" cy="46.83" r="1.66" xlink:href="#黃銅色色環"/><radialGradient id="黃銅色色環-26" cx="113.69" cy="46.83" r="1.71" xlink:href="#黃銅色色環"/><radialGradient id="黃銅色色環-27" cx="116.4" cy="46.83" r="1.18" xlink:href="#黃銅色色環"/><radialGradient id="黃銅色色環-28" cx="119.18" cy="46.82" r="1.74" xlink:href="#黃銅色色環"/><radialGradient id="黃銅色色環-29" cx="122.84" cy="46.82" r="1.65" xlink:href="#黃銅色色環"/></defs><title>logo</title><path class="cls-1" d="M30.14,44H21.88l-.15-.14a24.67,24.67,0,0,1-5.92-7.69,20.2,20.2,0,0,1-2-8.83c0-6,2.68-11.51,8-16.38l.16-.14h8.26l-1.4,1c-6.36,4.48-9.59,9.72-9.59,15.58a15.77,15.77,0,0,0,2.28,8.35A25.53,25.53,0,0,0,28.73,43Zm-7.85-1.09h4.46a24.93,24.93,0,0,1-6.26-6.6,16.85,16.85,0,0,1-2.44-8.92c0-5.8,2.93-11,8.71-15.48H22.3c-4.94,4.62-7.45,9.81-7.45,15.44a19.12,19.12,0,0,0,1.93,8.36A23.5,23.5,0,0,0,22.29,42.93Z"/><path class="cls-2" d="M47.1,44H41.72V37.36H37.22V44H31.84V37.36H28.36L25,33h6.83V10.84h5.38V33h4.49V10.84H47.1Zm-4.29-1.09H46v-31h-3.2V34H36.14V11.93h-3.2V34H27.21l1.69,2.22h4v6.66h3.2V36.27h6.67Z"/><path class="cls-3" d="M68.89,44H63.5V37.36H59.23V44H53.84V37.36H50.42L47,33h6.85V17a6.65,6.65,0,0,1,2.08-5.15,8,8,0,0,1,5.6-1.88,7.47,7.47,0,0,1,5.4,1.89,6.85,6.85,0,0,1,2,5.14Zm-4.29-1.09H67.8V17a5.73,5.73,0,0,0-1.63-4.36A6.43,6.43,0,0,0,61.53,11a7,7,0,0,0-4.87,1.6A5.54,5.54,0,0,0,54.93,17V34H49.22L51,36.27h4v6.66h3.2V36.27h6.45Zm0-8.88H58.14V17a3.78,3.78,0,0,1,.75-2.65,3.19,3.19,0,0,1,2.42-.82,3.32,3.32,0,0,1,2.53.82A3.79,3.79,0,0,1,64.59,17ZM59.23,33H63.5V17A2.78,2.78,0,0,0,63,15.06a2.43,2.43,0,0,0-1.74-.47,2.21,2.21,0,0,0-1.63.47A2.78,2.78,0,0,0,59.23,17Z"/><path class="cls-4" d="M79.41,44H72.26l1-.93c2.42-2.34,3.64-4.79,3.64-7.26,0-.24-.33-1.47-3.15-7.72a15.6,15.6,0,0,1-1.57-6.37,16.1,16.1,0,0,1,1-5.71,15.19,15.19,0,0,1,3.23-5l.16-.17h7.74l-1.27,1a14.85,14.85,0,0,0-4,4.64,11,11,0,0,0-1.44,5.28c0,1.68.77,4,2.3,6.88,1.63,3.09,2.42,5.38,2.42,7a14.1,14.1,0,0,1-2.67,8.17Zm-4.53-1.09h4a13,13,0,0,0,2.32-7.32c0-1.42-.77-3.6-2.3-6.49-1.63-3.08-2.42-5.5-2.42-7.38A12,12,0,0,1,78,15.93a15.52,15.52,0,0,1,3.17-4H77a14,14,0,0,0-2.84,4.48,15,15,0,0,0-.93,5.33,14.54,14.54,0,0,0,1.47,5.92C78,34.85,78,35.53,78,35.82A10.63,10.63,0,0,1,74.88,42.93Z"/><path class="cls-5" d="M102.26,44H95.17c-4.25,0-6.5-2-6.5-5.91v-.74H85.25L81.82,33h6.85V10.84h13.59v4.57H94.05V33h8.21v4.4H94.05v1.39c0,.26,0,.7,1.08.7h7.13ZM85.78,36.27h4V38.1c0,3.29,1.72,4.83,5.41,4.83h6V40.54h-6c-2,0-2.17-1.25-2.17-1.79V36.27h8.21V34H93V14.32h8.21V11.93H89.76V34H84.05Z"/><path class="cls-6" d="M124.32,44h-5.38V38.45c0-.73-.16-.89-.18-.91s-.23-.18-1.14-.18h-3.23V44H109V37.36h-3.42L102.16,33H109V9.42h.54c.39,0,1.21.12,3.85,1.15A20,20,0,0,1,120.46,15a12.88,12.88,0,0,1,3.86,9.36,12,12,0,0,1-3.83,8.76,4.83,4.83,0,0,1,2.7,1.26c.76.8,1.13,2.13,1.13,4.07ZM120,42.93h3.21V38.45a4.94,4.94,0,0,0-.83-3.32A5,5,0,0,0,119.22,34l-1.29-.11,1-.85a11.24,11.24,0,0,0,4.32-8.74,11.83,11.83,0,0,0-3.55-8.6A18.88,18.88,0,0,0,113,11.59a23.77,23.77,0,0,0-2.91-1V34h-5.71l1.73,2.22h4v6.66h3.21V36.27h4.32a2.77,2.77,0,0,1,1.87.46,2.23,2.23,0,0,1,.53,1.71Zm-6.72-8.44V14.59l.85.59a19.3,19.3,0,0,1,2.93,2.39A10.4,10.4,0,0,1,120,24.74a9.85,9.85,0,0,1-3,7A15.92,15.92,0,0,1,114.14,34Zm1.09-17.79V32.5A12.49,12.49,0,0,0,116.25,31a8.8,8.8,0,0,0,2.69-6.28,9.34,9.34,0,0,0-2.65-6.42A15,15,0,0,0,114.39,16.7Z"/><path class="cls-7" d="M162.71,60H12.43l-.14-1.36A11.9,11.9,0,0,0,1.39,48L0,47.91V12l1.39-.11A11.91,11.91,0,0,0,12.28,1.35L12.43,0H162.71l.11,1.39a11.86,11.86,0,0,0,10.85,10.9l1.39.12V48.3l-1.39.12a12,12,0,0,0-10.78,10.27ZM15.1,57h145A15.06,15.06,0,0,1,172,45.59V15.12A14.87,14.87,0,0,1,160,3H15.08A15,15,0,0,1,3,14.75V45.18A14.94,14.94,0,0,1,15.1,57Z"/><path class="cls-8" d="M139.79,49.09c-3.29-.64-6.57-1.16-9.45-2.92a4.22,4.22,0,0,1-1.7-2.07c-.95-2.86-1.72-5.78-2.53-8.69a2.7,2.7,0,0,1,1.34-3.32,16.16,16.16,0,0,1,7.13-2.59l-2.8,5.31,4.15,1.56-3.59,2.84.12.13,5-2.82c-1.34-.53-2.69-1.08-4.06-1.58-.59-.21-.76-.45-.5-1.08,1-2.4,2.18-4.63,4.55-6,.64-.37,1-.4,1.49.33a4.67,4.67,0,0,0,3.39,1.94c.27,0,.54.07.72.1l-3.42,3.83-1.13-5.75a27.85,27.85,0,0,0,.94,10.93c1,3.57,2.13,7.08,3.25,10.76a18.6,18.6,0,0,1-6.68-4.72l-.22.26Z"/><path class="cls-9" d="M151.55,45.32a19,19,0,0,1-6.88,4.78c2.65-7.15,5-14.12,4.41-21.7l-1.14,5.7-3.38-3.83a4.56,4.56,0,0,0,1.45-.33A16.33,16.33,0,0,0,148.76,28c.39-.35.6-.5,1.07-.27a9.58,9.58,0,0,1,4.29,4.9c.91,2,.91,2-1.05,2.72l-3,1.18,5,2.72.12-.08-3.47-2.79,4.12-1.56L153,29.5A13.59,13.59,0,0,1,161.15,33a2.6,2.6,0,0,1,.37,2.15c-.83,3.22-1.78,6.41-2.76,9.59a2.5,2.5,0,0,1-1,1.15c-3,2-6.45,2.5-9.95,3.21l4-3.53Z"/><path class="cls-10" d="M143.84,50.53c-.38-.48-.65-.68-.72-.94-.93-3.51-1.89-7-2.7-10.57a3.22,3.22,0,0,1,.64-2,3.09,3.09,0,0,0,.19-3.4.91.91,0,0,1,.38-1.34l.07-.06c2-1.65,2.85-1.6,4.56.34a1.17,1.17,0,0,1,.08,1,3,3,0,0,0,.21,3.32,3.87,3.87,0,0,1,.35,3.52c-.88,2.94-1.57,5.95-2.36,8.92A5.58,5.58,0,0,1,143.84,50.53Z"/><path class="cls-11" d="M131.3,18.52l3.21-.15a12.29,12.29,0,0,1,3.84.4,28,28,0,0,0,5.73.67c1.64.1,3.29,0,4.94,0l.06.33-1.69.61,0,.18,2.82-.34.06.21-5,1.27,0,.22,4.7-.61A26.22,26.22,0,0,1,141,22.84c4.93.77,11.43-.45,14.57-3.71l-5.12-.42-.05-.39a2.64,2.64,0,0,1,.86-.21c1.63.19,3.25.43,5.21.7a19.28,19.28,0,0,1-1.9,2,14.83,14.83,0,0,1-7.68,2.64,24.06,24.06,0,0,1-10-.67,9.64,9.64,0,0,1-4.5-2.74A16.42,16.42,0,0,1,131.3,18.52Z"/><path class="cls-12" d="M145.35,11.42l-.51-.48c1.2-1.09,2.53-1,3.28.37a13.23,13.23,0,0,1,1,3.07c0,.17-.31.58-.55.65a17.33,17.33,0,0,1-9.6.22.92.92,0,0,1-.53-.3c-.34-.56,0-2.8.52-3.14a28,28,0,0,1,3.21-1.65c.18-.08.53.18.79.32l2.24,1.19Z"/><path class="cls-13" d="M137.72,15.54c4,.91,7.69,1.36,11.39.22l.71.75-.75,1.14h1.12c-1,1.73-10.69,1.76-12.82.13C137.81,17.18,138.86,16.79,137.72,15.54Z"/><path class="cls-14" d="M63.41,48.43v-.09a.25.25,0,0,0,.14-.07.25.25,0,0,0,0-.15V45H62.33a.25.25,0,0,0-.15,0,.27.27,0,0,0-.07.14H62v-.84h.08a.29.29,0,0,0,.08.14.24.24,0,0,0,.14,0h3.14a.24.24,0,0,0,.14,0,.31.31,0,0,0,.08-.14h.08v.84H65.7a.27.27,0,0,0-.07-.14.25.25,0,0,0-.15,0H64.21v3.1a.25.25,0,0,0,0,.15.25.25,0,0,0,.14.07v.09Z"/><path class="cls-15" d="M67,47v1.09a.25.25,0,0,0,0,.15.25.25,0,0,0,.14.07v.09h-.93v-.09a.24.24,0,0,0,.14-.07.26.26,0,0,0,0-.15V45.53a.25.25,0,0,0,0-.14.27.27,0,0,0-.14-.07v-.09h.93v.09a.28.28,0,0,0-.14.07.24.24,0,0,0,0,.14v1h2v-1a.24.24,0,0,0,0-.14.28.28,0,0,0-.14-.07v-.09h.93v.09a.28.28,0,0,0-.14.07.23.23,0,0,0,0,.14v2.59a.23.23,0,0,0,0,.14.28.28,0,0,0,.14.07v.09H68.9v-.09a.25.25,0,0,0,.14-.07.25.25,0,0,0,0-.15V47Z"/><path class="cls-16" d="M70.54,48.43v-.09a.24.24,0,0,0,.14-.07.26.26,0,0,0,0-.15V45.53a.25.25,0,0,0,0-.14.27.27,0,0,0-.14-.07v-.09h2.6a.24.24,0,0,0,.15,0,.33.33,0,0,0,.08-.14h.08v.83h-.08a.3.3,0,0,0-.08-.14.25.25,0,0,0-.15,0H71.3v.85h1.17a.24.24,0,0,0,.14,0,.34.34,0,0,0,.09-.14h.08v.82H72.7a.33.33,0,0,0-.08-.14.25.25,0,0,0-.15,0H71.3v.9h2a.25.25,0,0,0,.15,0,.29.29,0,0,0,.08-.14h.08v.83H73.5a.31.31,0,0,0-.08-.14.25.25,0,0,0-.15,0Z"/><path class="cls-17" d="M76.57,47.34l.09,0,0,.06a.26.26,0,0,0,0,.05q0,.13.41.33a1.91,1.91,0,0,0,.85.2,1.62,1.62,0,0,0,.77-.16.46.46,0,0,0,.29-.4.3.3,0,0,0-.2-.3,3,3,0,0,0-.87-.11,2.66,2.66,0,0,1-1.17-.22.67.67,0,0,1-.34-.63.86.86,0,0,1,.43-.74,2,2,0,0,1,1.13-.29,2.89,2.89,0,0,1,1.06.22l.2.07.06,0,.08-.06.08,0-.39.75-.09,0v0a.18.18,0,0,0,0,0q0-.16-.32-.29a1.87,1.87,0,0,0-.73-.13,1.51,1.51,0,0,0-.7.14q-.28.15-.28.35t.92.36l.35,0a2.08,2.08,0,0,1,1,.25.71.71,0,0,1,.3.63.93.93,0,0,1-.47.8,2.07,2.07,0,0,1-1.18.31,2.65,2.65,0,0,1-1.38-.42L76.32,48h0l-.08.06-.09,0Z"/><path class="cls-18" d="M80.1,48.43v-.09a.24.24,0,0,0,.14-.07.26.26,0,0,0,0-.15V45.53a.25.25,0,0,0,0-.14.27.27,0,0,0-.14-.07v-.09h2.6a.24.24,0,0,0,.15,0,.33.33,0,0,0,.08-.14H83v.83h-.08a.3.3,0,0,0-.08-.14.25.25,0,0,0-.15,0H80.86v.85H82a.24.24,0,0,0,.14,0,.34.34,0,0,0,.09-.14h.08v.82h-.08a.33.33,0,0,0-.08-.14A.25.25,0,0,0,82,47H80.86v.9h2a.25.25,0,0,0,.15,0,.29.29,0,0,0,.08-.14h.08v.83h-.08a.31.31,0,0,0-.08-.14.25.25,0,0,0-.15,0Z"/><path class="cls-19" d="M86.53,46.2l-.06,0v0a.13.13,0,0,0,0,0q0-.16-.37-.31a1.89,1.89,0,0,0-.76-.16,1.38,1.38,0,0,0-1,.33,1.12,1.12,0,0,0-.36.87,1.09,1.09,0,0,0,.37.86,1.39,1.39,0,0,0,1,.33,1.62,1.62,0,0,0,.78-.2q.37-.2.37-.32a.15.15,0,0,0,0,0l0-.07.08-.06.52.65L87,48,87,48H86.9l-.12.07a2.54,2.54,0,0,1-1.44.46A2,2,0,0,1,84,48a1.53,1.53,0,0,1-.53-1.19A1.54,1.54,0,0,1,84,45.63a1.91,1.91,0,0,1,1.33-.47,3.19,3.19,0,0,1,1.27.3l.21.07,0,0,.07-.06.07,0Z"/><path class="cls-20" d="M89.25,45.23a1.73,1.73,0,0,1,1,.24.79.79,0,0,1,.35.68.8.8,0,0,1-.19.55,1,1,0,0,1-.56.3l.68,1.08a1.09,1.09,0,0,0,.17.22.21.21,0,0,0,.14.06v.07H89.9v-.07h0l.06,0a.06.06,0,0,0,0,0v-.07L89.23,47H88.16v1.08a.25.25,0,0,0,0,.15.25.25,0,0,0,.14.07v.09h-.93v-.09a.24.24,0,0,0,.14-.07.26.26,0,0,0,0-.15V45.53a.25.25,0,0,0,0-.14.27.27,0,0,0-.14-.07v-.09Zm.18.5H88.16v.84h1.26a.86.86,0,0,0,.47-.1.36.36,0,0,0,.15-.32.35.35,0,0,0-.15-.31A.86.86,0,0,0,89.42,45.73Z"/><path class="cls-21" d="M91.31,48.43v-.09a.24.24,0,0,0,.14-.07.26.26,0,0,0,0-.15V45.53a.25.25,0,0,0,0-.14.27.27,0,0,0-.14-.07v-.09h2.6a.24.24,0,0,0,.15,0,.33.33,0,0,0,.08-.14h.08v.83h-.08a.3.3,0,0,0-.08-.14.25.25,0,0,0-.15,0H92.06v.85h1.17a.24.24,0,0,0,.14,0,.34.34,0,0,0,.09-.14h.08v.82h-.08a.33.33,0,0,0-.08-.14.25.25,0,0,0-.15,0H92.06v.9h2a.25.25,0,0,0,.15,0,.29.29,0,0,0,.08-.14h.08v.83h-.08a.31.31,0,0,0-.08-.14.25.25,0,0,0-.15,0Z"/><path class="cls-22" d="M95.06,45.72a.24.24,0,0,0-.15,0,.26.26,0,0,0-.07.14h-.08v-.83h.08a.27.27,0,0,0,.07.14.26.26,0,0,0,.15,0h2.55a.26.26,0,0,0,.15,0,.3.3,0,0,0,.08-.14h.08v.83h-.08a.28.28,0,0,0-.08-.14.24.24,0,0,0-.14,0h-1v2.4a.25.25,0,0,0,0,.15.25.25,0,0,0,.14.07v.09h-.93v-.09a.25.25,0,0,0,.14-.07.25.25,0,0,0,0-.15v-2.4Z"/><path class="cls-23" d="M100.39,48l-.08,0,.56-.81.07.05,0,.07a.29.29,0,0,0,0,.06q0,.16.48.4a2.28,2.28,0,0,0,1,.24,1.89,1.89,0,0,0,.93-.2.58.58,0,0,0,.35-.52.41.41,0,0,0-.27-.4,3,3,0,0,0-1-.14,3.22,3.22,0,0,1-1.4-.26.79.79,0,0,1-.41-.74,1,1,0,0,1,.52-.88,2.32,2.32,0,0,1,1.33-.35,3.4,3.4,0,0,1,1.24.28,1,1,0,0,0,.26.08l.07,0,.09-.07.07,0-.47.84-.07,0v0a.12.12,0,0,0,0,0q0-.19-.39-.35a2.19,2.19,0,0,0-.87-.16,1.79,1.79,0,0,0-.86.18.53.53,0,0,0-.34.45q0,.44,1.13.49l.36,0a2.53,2.53,0,0,1,1.22.31.87.87,0,0,1,.38.77,1.09,1.09,0,0,1-.56.91,2.44,2.44,0,0,1-1.39.38,3.25,3.25,0,0,1-1.61-.47.75.75,0,0,0-.22-.1h-.05Z"/><path class="cls-24" d="M104.87,48.43v-.09a.24.24,0,0,0,.14-.07.26.26,0,0,0,0-.15V45.53a.25.25,0,0,0,0-.14.27.27,0,0,0-.14-.07v-.09h2.6a.24.24,0,0,0,.15,0,.33.33,0,0,0,.08-.14h.08v.83h-.08a.3.3,0,0,0-.08-.14.25.25,0,0,0-.15,0h-1.85v.85h1.17a.24.24,0,0,0,.14,0,.34.34,0,0,0,.09-.14h.08v.82H107a.33.33,0,0,0-.08-.14.25.25,0,0,0-.15,0h-1.18v.9h2a.25.25,0,0,0,.15,0,.29.29,0,0,0,.08-.14h.08v.83h-.08a.31.31,0,0,0-.08-.14.25.25,0,0,0-.15,0Z"/><path class="cls-25" d="M110.33,45.23a1.73,1.73,0,0,1,1,.24.79.79,0,0,1,.35.68.8.8,0,0,1-.19.55,1,1,0,0,1-.56.3l.68,1.08a1.09,1.09,0,0,0,.17.22.21.21,0,0,0,.14.06v.07H111v-.07h0l.06,0a.06.06,0,0,0,0,0v-.07L110.32,47h-1.07v1.08a.25.25,0,0,0,0,.15.25.25,0,0,0,.14.07v.09h-.93v-.09a.24.24,0,0,0,.14-.07.26.26,0,0,0,0-.15V45.53a.25.25,0,0,0,0-.14.27.27,0,0,0-.14-.07v-.09Zm.18.5h-1.26v.84h1.26a.86.86,0,0,0,.47-.1.36.36,0,0,0,.15-.32.35.35,0,0,0-.15-.31A.86.86,0,0,0,110.51,45.73Z"/><path class="cls-26" d="M114.18,48l0,.09a.28.28,0,0,0,0,.06.16.16,0,0,0,0,.12.22.22,0,0,0,.12.05v.09h-1.19v-.09a.2.2,0,0,0,.12-.05.17.17,0,0,0,0-.12.26.26,0,0,0,0-.07l0-.09-1.07-2.39a.63.63,0,0,0-.12-.19.53.53,0,0,0-.17-.11v-.09h1v.09a.27.27,0,0,0-.13.07.15.15,0,0,0,0,.11.2.2,0,0,0,0,0l0,.09,1,2.1.9-2.1,0-.07a.25.25,0,0,0,0-.06.15.15,0,0,0,0-.11.27.27,0,0,0-.13-.07v-.09h1v.09a.48.48,0,0,0-.18.1.65.65,0,0,0-.13.2Z"/><path class="cls-27" d="M116.69,48.12a.25.25,0,0,0,0,.15.25.25,0,0,0,.14.07v.09h-.93v-.09a.24.24,0,0,0,.14-.07.26.26,0,0,0,0-.15V45.53a.25.25,0,0,0,0-.14.27.27,0,0,0-.14-.07v-.09h.93v.09a.28.28,0,0,0-.14.07.24.24,0,0,0,0,.14Z"/><path class="cls-28" d="M120.44,46.2l-.06,0v0a.13.13,0,0,0,0,0q0-.16-.37-.31a1.89,1.89,0,0,0-.76-.16,1.38,1.38,0,0,0-1,.33,1.12,1.12,0,0,0-.36.87,1.09,1.09,0,0,0,.37.86,1.39,1.39,0,0,0,1,.33,1.62,1.62,0,0,0,.78-.2q.37-.2.37-.32a.15.15,0,0,0,0,0l0-.07.08-.06L121,48l-.06,0-.07,0h-.06l-.12.07a2.54,2.54,0,0,1-1.44.46A2,2,0,0,1,117.9,48a1.53,1.53,0,0,1-.53-1.19,1.54,1.54,0,0,1,.52-1.19,1.91,1.91,0,0,1,1.33-.47,3.19,3.19,0,0,1,1.27.3l.21.07,0,0,.07-.06.07,0Z"/><path class="cls-29" d="M121.32,48.43v-.09a.24.24,0,0,0,.14-.07.26.26,0,0,0,0-.15V45.53a.25.25,0,0,0,0-.14.27.27,0,0,0-.14-.07v-.09h2.6a.24.24,0,0,0,.15,0,.33.33,0,0,0,.08-.14h.08v.83h-.08a.3.3,0,0,0-.08-.14.25.25,0,0,0-.15,0h-1.85v.85h1.17a.24.24,0,0,0,.14,0,.34.34,0,0,0,.09-.14h.08v.82h-.08a.33.33,0,0,0-.08-.14.25.25,0,0,0-.15,0h-1.18v.9h2a.25.25,0,0,0,.15,0,.29.29,0,0,0,.08-.14h.08v.83h-.08a.31.31,0,0,0-.08-.14.25.25,0,0,0-.15,0Z"/></svg>